<?xml version="1.0" encoding="UTF-8" standalone="no"?>
<!-- Created with Inkscape (http://www.inkscape.org/) -->

<svg
   xmlns:dc="http://purl.org/dc/elements/1.1/"
   xmlns:cc="http://creativecommons.org/ns#"
   xmlns:rdf="http://www.w3.org/1999/02/22-rdf-syntax-ns#"
   xmlns:svg="http://www.w3.org/2000/svg"
   xmlns="http://www.w3.org/2000/svg"
   xmlns:sodipodi="http://sodipodi.sourceforge.net/DTD/sodipodi-0.dtd"
   xmlns:inkscape="http://www.inkscape.org/namespaces/inkscape"
   width="5.75in"
   height="1in"
   viewBox="0 0 146.05 25.4"
   version="1.1"
   id="svg8"
   inkscape:version="0.92.4 (5da689c313, 2019-01-14)"
   sodipodi:docname="logo.svg"
   inkscape:export-filename="C:\Users\matth\github\padgames\client\assets\logo.png"
   inkscape:export-xdpi="200"
   inkscape:export-ydpi="200">
  <defs
     id="defs2" />
  <sodipodi:namedview
     id="base"
     pagecolor="#ffffff"
     bordercolor="#666666"
     borderopacity="1.0"
     inkscape:pageopacity="0.0"
     inkscape:pageshadow="2"
     inkscape:zoom="2.8"
     inkscape:cx="247.28315"
     inkscape:cy="-71.094077"
     inkscape:document-units="mm"
     inkscape:current-layer="layer1"
     showgrid="false"
     inkscape:window-width="3840"
     inkscape:window-height="2066"
     inkscape:window-x="-11"
     inkscape:window-y="-11"
     inkscape:window-maximized="1"
     units="in" />
  <metadata
     id="metadata5">
    <rdf:RDF>
      <cc:Work
         rdf:about="">
        <dc:format>image/svg+xml</dc:format>
        <dc:type
           rdf:resource="http://purl.org/dc/dcmitype/StillImage" />
        <dc:title></dc:title>
      </cc:Work>
    </rdf:RDF>
  </metadata>
  <g
     inkscape:label="Layer 1"
     inkscape:groupmode="layer"
     id="layer1"
     transform="translate(0,-271.6)">
    <text
       xml:space="preserve"
       style="font-style:normal;font-variant:normal;font-weight:normal;font-stretch:normal;font-size:10.58333302px;line-height:1.25;font-family:Comfortaa;-inkscape-font-specification:Comfortaa;letter-spacing:0px;word-spacing:0px;fill:#000000;fill-opacity:1;stroke:none;stroke-width:0.26458332"
       x="86.717194"
       y="290.6004"
       id="text817"><tspan
         sodipodi:role="line"
         id="tspan815"
         x="86.717194"
         y="290.6004"
         style="font-style:normal;font-variant:normal;font-weight:normal;font-stretch:condensed;font-size:25.39999962px;font-family:Comfortaa;-inkscape-font-specification:'Comfortaa weight=255 Condensed';text-align:center;text-anchor:middle;stroke-width:0.26458332">padgames</tspan></text>
    <path
       style="fill:#000000;stroke-width:0.0288096"
       d="m 2.1779796,295.8482 c -1.043518,-0.17594 -1.94636201,-1.0735 -2.12809801,-2.11566 -0.06594,-0.3781 -0.06678,-18.48637 -8.76e-4,-18.86427 0.168703,-0.96742 0.917967,-1.79388 1.87878701,-2.07237 l 0.22447,-0.0651 h 7.332043 7.3320434 l 0.224469,0.0651 c 0.867083,0.25132 1.550704,0.92951 1.827952,1.81343 l 0.07949,0.25342 v 9.43515 9.43514 l -0.07958,0.25374 c -0.27214,0.86771 -0.931123,1.52824 -1.793044,1.79725 l -0.259286,0.0809 -7.2456144,0.004 c -3.985088,0.002 -7.311827,-0.007 -7.392755,-0.0208 z m 7.655847,-1.07936 c 0.4660344,-0.16443 0.7762224,-0.68496 0.6890794,-1.15636 -0.16449,-0.88981 -1.2748884,-1.19465 -1.8438104,-0.50619 -0.671903,0.81309 0.161494,2.01299 1.154731,1.66255 z m 6.7866724,-3.18742 c 0.07039,-0.0466 0.141143,-0.12752 0.177954,-0.20356 l 0.06111,-0.12623 v -8.01553 -8.01552 l -0.05735,-0.11243 c -0.03154,-0.0618 -0.10508,-0.14882 -0.163412,-0.19331 l -0.106058,-0.0809 -7.0109854,-0.007 c -7.750885,-0.008 -7.113347,-0.0219 -7.274762,0.15661 -0.146613,0.16213 -0.137944,-0.35718 -0.137944,8.26316 0,8.70064 -0.01191,8.0917 0.161622,8.26515 0.171075,0.171 -0.342433,0.16012 7.24455,0.15343 l 6.9884334,-0.006 z"
       id="path836"
       inkscape:connector-curvature="0" />
    <path
       style="fill:#000000;stroke-width:0.01932726"
       d="m 5.1204298,288.08536 c -2.295779,-0.56845 -3.48073,-3.05262 -2.4702339,-5.17866 0.5501602,-1.15752 1.6740619,-1.94706 2.9562314,-2.07676 0.2755511,-0.0279 7.2090737,-0.0279 7.4852227,-4e-5 1.779819,0.17963 3.208262,1.66431 3.299812,3.42972 0.09442,1.82076 -1.034494,3.36439 -2.791908,3.81751 -0.649634,0.13916 -1.462012,0.10166 -2.070987,-0.0874 -0.472457,-0.15807 -0.889461,-0.40314 -1.295024,-0.7611 l -0.155738,-0.13746 H 9.3388908 8.5999751 l -0.1338082,0.12622 c -0.4223726,0.39845 -1.0131671,0.71545 -1.600198,0.85864 -0.5667092,0.1082 -1.240388,0.13677 -1.7455391,0.009 z m 1.3681723,-0.91442 c 0.6032717,-0.11779 1.1665511,-0.44318 1.546376,-0.89327 l 0.1290971,-0.15298 h 1.1844449 1.1844439 l 0.08259,0.10701 c 0.793796,1.02891 2.424663,1.29261 3.544232,0.57306 2.085511,-1.34035 1.487855,-4.48905 -0.945989,-4.98384 -0.266093,-0.0541 -7.4563974,-0.0547 -7.7340783,-6.4e-4 -1.7873044,0.34791 -2.7492194,2.29445 -1.9303013,3.90616 0.4289301,0.84417 1.2052096,1.37052 2.1950935,1.48836 0.1418056,0.0169 0.5587874,-0.008 0.7440996,-0.0439 z m -0.9277086,-1.08466 c -0.1172717,-0.0772 -0.1256268,-0.11735 -0.1256268,-0.60392 v -0.43999 h -0.436775 c -0.6490378,0 -0.6455911,0.003 -0.6454803,-0.54345 1.117e-4,-0.54632 -0.00866,-0.53889 0.6367684,-0.53889 h 0.4454869 l 3.83e-5,-0.4397 c 3.83e-5,-0.64821 0.00343,-0.65229 0.5411338,-0.65229 0.5412405,0 0.540987,-3e-4 0.5410913,0.64263 l 6.36e-5,0.44936 0.449359,9e-5 c 0.6429323,9e-5 0.6426317,-1.6e-4 0.6426317,0.54108 0,0.53659 -0.00555,0.54117 -0.6519939,0.54117 H 6.5175937 v 0.43676 c 0,0.64907 0.00293,0.64563 -0.5434454,0.64543 -0.3211435,-1.2e-4 -0.3608424,-0.004 -0.4132548,-0.0383 z m 6.9598665,0.009 c -0.363898,-0.13336 -0.462117,-0.59832 -0.186164,-0.8813 0.340016,-0.34866 0.914778,-0.11549 0.916417,0.37178 0.0013,0.37586 -0.376245,0.63926 -0.730253,0.50952 z m -1.048338,-1.07306 c -0.341919,-0.0991 -0.50141,-0.54405 -0.296437,-0.82701 0.315474,-0.4355 0.983555,-0.22725 0.984557,0.30689 6.75e-4,0.35549 -0.347678,0.61878 -0.68812,0.52012 z m 2.150168,-0.0108 c -0.28723,-0.0882 -0.445871,-0.47832 -0.305997,-0.75251 0.210938,-0.41347 0.829046,-0.38535 0.990075,0.0451 0.16317,0.43611 -0.233112,0.84596 -0.684078,0.70747 z m -1.022039,-1.07069 c -0.624404,-0.15548 -0.529208,-1.06711 0.111432,-1.06711 0.474501,0 0.716724,0.55359 0.39496,0.90267 -0.125394,0.13603 -0.340258,0.20581 -0.506392,0.16444 z m -3.7441997,-3.43468 c 0.00465,-0.98942 0.68159,-1.93767 1.6411607,-2.29888 0.354448,-0.13343 0.270036,-0.12761 2.050188,-0.14105 1.580452,-0.0119 1.617026,-0.0131 1.768446,-0.0545 0.630331,-0.17235 1.078602,-0.69754 1.14167,-1.33757 l 0.01331,-0.13495 h 0.483342 0.483343 l -0.01344,0.16912 c -0.08088,1.0175 -0.744527,1.87002 -1.702336,2.18679 -0.349124,0.11546 -0.386666,0.11778 -1.9134,0.11856 -0.765361,3.3e-4 -1.480944,0.009 -1.590185,0.0186 -0.746487,0.0674 -1.3041983,0.62896 -1.3867128,1.39651 l -0.011945,0.11114 H 9.3379986 c -0.446024,0 -0.4817793,-0.002 -0.4816326,-0.0338 z"
       id="path849"
       inkscape:connector-curvature="0"
       sodipodi:nodetypes="ccccsccccccccccccccccccccccccscscsccscccsscscccccccccccccccccsccccccccccccccccscc" />
  </g>
</svg>
