<?xml version="1.0" encoding="UTF-8" standalone="no"?>
<!-- Created with Inkscape (http://www.inkscape.org/) -->

<svg
   xmlns:dc="http://purl.org/dc/elements/1.1/"
   xmlns:cc="http://creativecommons.org/ns#"
   xmlns:rdf="http://www.w3.org/1999/02/22-rdf-syntax-ns#"
   xmlns:svg="http://www.w3.org/2000/svg"
   xmlns="http://www.w3.org/2000/svg"
   xmlns:sodipodi="http://sodipodi.sourceforge.net/DTD/sodipodi-0.dtd"
   xmlns:inkscape="http://www.inkscape.org/namespaces/inkscape"
   width="5in"
   height="1in"
   viewBox="0 0 127 25.4"
   version="1.1"
   id="svg8"
   inkscape:version="0.92.4 (5da689c313, 2019-01-14)"
   sodipodi:docname="logo.svg"
   inkscape:export-filename="C:\Users\matth\github\padgames\client\assets\logo_plain.png"
   inkscape:export-xdpi="200"
   inkscape:export-ydpi="200">
  <defs
     id="defs2" />
  <sodipodi:namedview
     id="base"
     pagecolor="#ffffff"
     bordercolor="#666666"
     borderopacity="1.0"
     inkscape:pageopacity="0.0"
     inkscape:pageshadow="2"
     inkscape:zoom="2.8"
     inkscape:cx="171.56886"
     inkscape:cy="-71.094077"
     inkscape:document-units="mm"
     inkscape:current-layer="layer1"
     showgrid="false"
     inkscape:window-width="3840"
     inkscape:window-height="2066"
     inkscape:window-x="-11"
     inkscape:window-y="-11"
     inkscape:window-maximized="1"
     units="in" />
  <metadata
     id="metadata5">
    <rdf:RDF>
      <cc:Work
         rdf:about="">
        <dc:format>image/svg+xml</dc:format>
        <dc:type
           rdf:resource="http://purl.org/dc/dcmitype/StillImage" />
        <dc:title></dc:title>
      </cc:Work>
    </rdf:RDF>
  </metadata>
  <g
     inkscape:label="Layer 1"
     inkscape:groupmode="layer"
     id="layer1"
     transform="translate(0,-271.6)">
    <text
       xml:space="preserve"
       style="font-style:normal;font-variant:normal;font-weight:normal;font-stretch:normal;font-size:10.58333302px;line-height:1.25;font-family:Comfortaa;-inkscape-font-specification:Comfortaa;letter-spacing:0px;word-spacing:0px;fill:#000000;fill-opacity:1;stroke:none;stroke-width:0.26458332"
       x="63.828663"
       y="290.6004"
       id="text817"><tspan
         sodipodi:role="line"
         id="tspan815"
         x="63.828663"
         y="290.6004"
         style="font-style:normal;font-variant:normal;font-weight:normal;font-stretch:condensed;font-size:25.39999962px;font-family:Comfortaa;-inkscape-font-specification:'Comfortaa weight=255 Condensed';text-align:center;text-anchor:middle;stroke-width:0.26458332">padgames</tspan></text>
    <path
       style="fill:#000000;stroke-width:0.0288096"
       d="m 129.17798,295.8482 c -1.04352,-0.17594 -1.94636,-1.0735 -2.1281,-2.11566 -0.0659,-0.3781 -0.0668,-18.48637 -8.7e-4,-18.86427 0.1687,-0.96742 0.91796,-1.79388 1.87878,-2.07237 l 0.22447,-0.0651 h 7.33205 7.33204 l 0.22447,0.0651 c 0.86708,0.25132 1.5507,0.92951 1.82795,1.81343 l 0.0795,0.25342 v 9.43515 9.43514 l -0.0796,0.25374 c -0.27214,0.86771 -0.93112,1.52824 -1.79304,1.79725 l -0.25929,0.0809 -7.24561,0.004 c -3.98509,0.002 -7.31183,-0.007 -7.39276,-0.0208 z m 7.65585,-1.07936 c 0.46603,-0.16443 0.77622,-0.68496 0.68908,-1.15636 -0.16449,-0.88981 -1.27489,-1.19465 -1.84381,-0.50619 -0.67191,0.81309 0.16149,2.01299 1.15473,1.66255 z m 6.78667,-3.18742 c 0.0704,-0.0466 0.14114,-0.12752 0.17795,-0.20356 l 0.0611,-0.12623 v -8.01553 -8.01552 l -0.0573,-0.11243 c -0.0315,-0.0618 -0.10508,-0.14882 -0.16341,-0.19331 l -0.10606,-0.0809 -7.01098,-0.007 c -7.75089,-0.008 -7.11335,-0.0219 -7.27476,0.15661 -0.14662,0.16213 -0.13795,-0.35718 -0.13795,8.26316 0,8.70064 -0.0119,8.0917 0.16162,8.26515 0.17108,0.171 -0.34243,0.16012 7.24455,0.15343 l 6.98844,-0.006 z"
       id="path836"
       inkscape:connector-curvature="0" />
    <path
       style="fill:#000000;stroke-width:0.01932726"
       d="m 132.00691,288.93581 c -2.29578,-0.56845 -3.48073,-3.05262 -2.47023,-5.17866 0.55016,-1.15752 1.67406,-1.94706 2.95623,-2.07676 0.27555,-0.0279 7.20908,-0.0279 7.48522,-4e-5 1.77982,0.17963 3.20827,1.66431 3.29982,3.42972 0.0944,1.82076 -1.0345,3.36439 -2.79191,3.81751 -0.64964,0.13916 -1.46201,0.10166 -2.07099,-0.0874 -0.47246,-0.15807 -0.88946,-0.40314 -1.29502,-0.7611 l -0.15574,-0.13746 h -0.73892 -0.73891 l -0.13381,0.12622 c -0.42237,0.39845 -1.01317,0.71545 -1.6002,0.85864 -0.56671,0.1082 -1.24038,0.13677 -1.74554,0.009 z m 1.36818,-0.91442 c 0.60327,-0.11779 1.16655,-0.44318 1.54637,-0.89327 l 0.1291,-0.15298 h 1.18444 1.18445 l 0.0826,0.10701 c 0.79379,1.02891 2.42466,1.29261 3.54423,0.57306 2.08551,-1.34035 1.48786,-4.48905 -0.94599,-4.98384 -0.26609,-0.0541 -7.4564,-0.0547 -7.73408,-6.4e-4 -1.7873,0.34791 -2.74922,2.29445 -1.9303,3.90616 0.42893,0.84417 1.20521,1.37052 2.1951,1.48836 0.1418,0.0169 0.55878,-0.008 0.74409,-0.0439 z m -0.92771,-1.08466 c -0.11727,-0.0772 -0.12563,-0.11735 -0.12563,-0.60392 v -0.43999 h -0.43677 c -0.64904,0 -0.6456,0.003 -0.64548,-0.54345 1.1e-4,-0.54632 -0.009,-0.53889 0.63676,-0.53889 h 0.44549 l 4e-5,-0.4397 c 4e-5,-0.64821 0.003,-0.65229 0.54113,-0.65229 0.54124,0 0.54099,-3e-4 0.54109,0.64263 l 7e-5,0.44936 0.44936,9e-5 c 0.64293,9e-5 0.64263,-1.6e-4 0.64263,0.54108 0,0.53659 -0.006,0.54117 -0.652,0.54117 h -0.43999 v 0.43676 c 0,0.64907 0.003,0.64563 -0.54345,0.64543 -0.32114,-1.2e-4 -0.36084,-0.004 -0.41325,-0.0383 z m 6.95986,0.009 c -0.36389,-0.13336 -0.46211,-0.59832 -0.18616,-0.8813 0.34002,-0.34866 0.91478,-0.11549 0.91642,0.37178 0.001,0.37586 -0.37625,0.63926 -0.73026,0.50952 z m -1.04833,-1.07306 c -0.34192,-0.0991 -0.50141,-0.54405 -0.29644,-0.82701 0.31547,-0.4355 0.98355,-0.22725 0.98456,0.30689 6.7e-4,0.35549 -0.34768,0.61878 -0.68812,0.52012 z m 2.15016,-0.0108 c -0.28723,-0.0882 -0.44587,-0.47832 -0.30599,-0.75251 0.21094,-0.41347 0.82904,-0.38535 0.99007,0.0451 0.16317,0.43611 -0.23311,0.84596 -0.68408,0.70747 z m -1.02203,-1.07069 c -0.62441,-0.15548 -0.52921,-1.06711 0.11143,-1.06711 0.4745,0 0.71672,0.55359 0.39496,0.90267 -0.1254,0.13603 -0.34026,0.20581 -0.50639,0.16444 z m -3.7442,-3.43468 c 0.005,-0.98942 0.68159,-1.93767 1.64116,-2.29888 0.35444,-0.13343 0.27003,-0.12761 2.05018,-0.14105 1.58046,-0.0119 1.61703,-0.0131 1.76845,-0.0545 0.63033,-0.17235 1.0786,-0.69754 1.14167,-1.33757 l 0.0133,-0.13495 h 0.48334 0.48335 l -0.0134,0.16912 c -0.0809,1.0175 -0.74453,1.87002 -1.70234,2.18679 -0.34912,0.11546 -0.38667,0.11778 -1.9134,0.11856 -0.76536,3.3e-4 -1.48094,0.009 -1.59019,0.0186 -0.74648,0.0674 -1.30419,0.62896 -1.38671,1.39651 l -0.0119,0.11114 h -0.4818 c -0.44602,0 -0.48178,-0.002 -0.48163,-0.0338 z"
       id="path849"
       inkscape:connector-curvature="0"
       sodipodi:nodetypes="ccccsccccccccccccccccccccccccscscsccscccsscscccccccccccccccccsccccccccccccccccscc" />
  </g>
</svg>
