<?xml version="1.0" encoding="UTF-8" standalone="no"?>
<!-- Created with Inkscape (http://www.inkscape.org/) -->

<svg
   xmlns:dc="http://purl.org/dc/elements/1.1/"
   xmlns:cc="http://creativecommons.org/ns#"
   xmlns:rdf="http://www.w3.org/1999/02/22-rdf-syntax-ns#"
   xmlns:svg="http://www.w3.org/2000/svg"
   xmlns="http://www.w3.org/2000/svg"
   xmlns:xlink="http://www.w3.org/1999/xlink"
   xmlns:sodipodi="http://sodipodi.sourceforge.net/DTD/sodipodi-0.dtd"
   xmlns:inkscape="http://www.inkscape.org/namespaces/inkscape"
   width="100mm"
   height="100mm"
   viewBox="0 0 100 100"
   version="1.1"
   id="svg4708"
   inkscape:version="0.92.4 (5da689c313, 2019-01-14)"
   sodipodi:docname="logo_Pingo.svg">
  <defs
     id="defs4702" />
  <sodipodi:namedview
     id="base"
     pagecolor="#ffffff"
     bordercolor="#666666"
     borderopacity="1.0"
     inkscape:pageopacity="0.0"
     inkscape:pageshadow="2"
     inkscape:zoom="1.4142136"
     inkscape:cx="-651.88608"
     inkscape:cy="380.27256"
     inkscape:document-units="mm"
     inkscape:current-layer="layer7"
     showgrid="false"
     inkscape:window-width="3840"
     inkscape:window-height="2066"
     inkscape:window-x="-11"
     inkscape:window-y="-11"
     inkscape:window-maximized="1"
     inkscape:lockguides="true" />
  <metadata
     id="metadata4705">
    <rdf:RDF>
      <cc:Work
         rdf:about="">
        <dc:format>image/svg+xml</dc:format>
        <dc:type
           rdf:resource="http://purl.org/dc/dcmitype/StillImage" />
        <dc:title />
      </cc:Work>
    </rdf:RDF>
  </metadata>
  <g
     inkscape:groupmode="layer"
     id="layer3"
     inkscape:label="background"
     style="display:none"
     sodipodi:insensitive="true">
    <rect
       style="display:inline;opacity:1;fill:#ffc107;fill-opacity:1;stroke:none;stroke-width:0.75;stroke-linecap:round;stroke-linejoin:round;stroke-miterlimit:4;stroke-dasharray:none;stroke-opacity:1"
       id="rect5291"
       width="100"
       height="100"
       x="0"
       y="-1.4210855e-14" />
  </g>
  <g
     inkscape:groupmode="layer"
     id="layer7"
     inkscape:label="Camera"
     style="display:inline">
    <path
       style="fill:#85868a;fill-opacity:1;stroke:none;stroke-width:0.26458332px;stroke-linecap:butt;stroke-linejoin:miter;stroke-opacity:1"
       d="m 25.15303,30.711167 -0.0041,-1.855768 c 0.0016,-0.161298 0.220198,-0.296948 0.365321,-0.288191 h 34.003364 l 1.474467,2.553851 z"
       id="path999"
       inkscape:connector-curvature="0"
       sodipodi:nodetypes="cccccc" />
    <path
       style="fill:#383838;fill-opacity:1;stroke:none;stroke-width:0.26458332px;stroke-linecap:butt;stroke-linejoin:miter;stroke-opacity:1"
       d="m 13.227928,28.057088 1.131127,-1.21747 h 7.366616 l 1.079347,1.21747 z"
       id="path5366"
       inkscape:connector-curvature="0" />
    <g
       id="g1043"
       inkscape:tile-cx="12.501562"
       inkscape:tile-cy="29.057561"
       inkscape:tile-w="0.74414062"
       inkscape:tile-h="2.6851077"
       inkscape:tile-x0="12.129492"
       inkscape:tile-y0="27.715008"
       transform="translate(-0.00413412)">
      <g
         id="g4852">
        <rect
           style="fill:#3a3a3c;fill-opacity:1;stroke:none;stroke-width:0.26458332"
           id="rect1024"
           width="0.37207031"
           height="2.6851077"
           x="12.129492"
           y="27.715008" />
        <rect
           style="display:inline;fill:#575759;fill-opacity:1;stroke:none;stroke-width:0.26458332"
           id="rect1024-3"
           width="0.37207031"
           height="2.6851077"
           x="12.495363"
           y="27.715008" />
      </g>
    </g>
    <use
       x="0"
       y="0"
       inkscape:tiled-clone-of="#g1043"
       xlink:href="#g1043"
       id="use5334"
       width="100%"
       height="100%" />
    <use
       x="0"
       y="0"
       inkscape:tiled-clone-of="#g1043"
       xlink:href="#g1043"
       transform="translate(0.73669921)"
       id="use5336"
       width="100%"
       height="100%" />
    <use
       x="0"
       y="0"
       inkscape:tiled-clone-of="#g1043"
       xlink:href="#g1043"
       transform="translate(1.4733984)"
       id="use5338"
       width="100%"
       height="100%" />
    <use
       x="0"
       y="0"
       inkscape:tiled-clone-of="#g1043"
       xlink:href="#g1043"
       transform="translate(2.2100976)"
       id="use5340"
       width="100%"
       height="100%" />
    <use
       x="0"
       y="0"
       inkscape:tiled-clone-of="#g1043"
       xlink:href="#g1043"
       transform="translate(2.9467969)"
       id="use5342"
       width="100%"
       height="100%" />
    <use
       x="0"
       y="0"
       inkscape:tiled-clone-of="#g1043"
       xlink:href="#g1043"
       transform="translate(3.6834961)"
       id="use5344"
       width="100%"
       height="100%" />
    <use
       x="0"
       y="0"
       inkscape:tiled-clone-of="#g1043"
       xlink:href="#g1043"
       transform="translate(4.4201953)"
       id="use5346"
       width="100%"
       height="100%" />
    <use
       x="0"
       y="0"
       inkscape:tiled-clone-of="#g1043"
       xlink:href="#g1043"
       transform="translate(5.1568945)"
       id="use5348"
       width="100%"
       height="100%" />
    <use
       x="0"
       y="0"
       inkscape:tiled-clone-of="#g1043"
       xlink:href="#g1043"
       transform="translate(5.8935937)"
       id="use5350"
       width="100%"
       height="100%" />
    <use
       x="0"
       y="0"
       inkscape:tiled-clone-of="#g1043"
       xlink:href="#g1043"
       transform="translate(6.6302929)"
       id="use5352"
       width="100%"
       height="100%" />
    <use
       x="0"
       y="0"
       inkscape:tiled-clone-of="#g1043"
       xlink:href="#g1043"
       transform="translate(7.3669921)"
       id="use5354"
       width="100%"
       height="100%" />
    <use
       x="0"
       y="0"
       inkscape:tiled-clone-of="#g1043"
       xlink:href="#g1043"
       transform="translate(8.1036914)"
       id="use5356"
       width="100%"
       height="100%" />
    <use
       x="0"
       y="0"
       inkscape:tiled-clone-of="#g1043"
       xlink:href="#g1043"
       transform="translate(8.8403906)"
       id="use5358"
       width="100%"
       height="100%" />
    <use
       x="0"
       y="0"
       inkscape:tiled-clone-of="#g1043"
       xlink:href="#g1043"
       transform="translate(9.5770898)"
       id="use5360"
       width="100%"
       height="100%" />
    <use
       x="0"
       y="0"
       inkscape:tiled-clone-of="#g1043"
       xlink:href="#g1043"
       transform="translate(10.313789)"
       id="use5362"
       width="100%"
       height="100%" />
    <use
       x="0"
       y="0"
       inkscape:tiled-clone-of="#g1043"
       xlink:href="#g1043"
       transform="translate(11.050488)"
       id="use5364"
       width="100%"
       height="100%" />
    <rect
       style="fill:#fffaee;fill-opacity:1;stroke:#555658;stroke-width:0.9;stroke-miterlimit:4;stroke-dasharray:none;stroke-opacity:1"
       id="rect5423"
       width="15.599183"
       height="9.1301107"
       x="70.497025"
       y="23.335648" />
    <path
       style="display:inline;fill:#bbbcc0;fill-opacity:1;stroke:none;stroke-width:0.26458332px;stroke-linecap:butt;stroke-linejoin:miter;stroke-opacity:1"
       d="m 95.621649,38.90882 h -3.530592 l -0.09752,40.442742 c 1.42e-4,0.0726 -0.01342,0.09584 -0.09528,0.09785 l -83.0407758,3.06e-4 c -0.061258,6.2e-4 -0.078179,-0.04217 -0.076371,-0.09671 L 8.7363727,38.90882 H 4.8542118 C 4.6647837,38.508895 4.7167192,38.084002 4.8483018,37.650869 l 3.8880731,-8.95e-4 0.044421,-7.323467 29.9310671,-0.03057 c 2.851942,-2.621497 16.985759,-3.868661 21.381651,-0.02416 l 31.993192,-0.03415 -0.02373,7.370726 3.509606,0.02167 c 0.196767,0.291172 0.166491,0.928632 0.04906,1.278831 z"
       id="path972"
       inkscape:connector-curvature="0"
       sodipodi:nodetypes="cccccccccccccccccc" />
    <path
       style="fill:#d1d2d4;fill-opacity:1;stroke:none;stroke-width:0.26458332px;stroke-linecap:butt;stroke-linejoin:miter;stroke-opacity:1"
       d="m 32.974377,40.178397 6.220699,-13.142979 h 21.18779 L 67.16483,42.61055 64.171413,42.423461 58.324892,29.233712 H 41.159506 l -6.173925,12.815572 z"
       id="path5368"
       inkscape:connector-curvature="0"
       sodipodi:nodetypes="ccccccccc" />
    <path
       style="display:inline;fill:#3a3a3c;fill-opacity:1;stroke:none;stroke-width:0.26243246px;stroke-linecap:butt;stroke-linejoin:miter;stroke-opacity:1"
       d="M 8.7363727,38.909768 92.062972,38.868782 V 77.308519 H 8.6862574 Z"
       id="path974"
       inkscape:connector-curvature="0" />
    <ellipse
       style="fill:#f1f1f3;fill-opacity:1;stroke:none;stroke-width:0.5;stroke-miterlimit:4;stroke-dasharray:none;stroke-opacity:1"
       id="path5425"
       cx="48.617188"
       cy="57.798958"
       rx="15.554225"
       ry="15.375497" />
    <path
       style="fill:#000000;fill-opacity:1;stroke:none;stroke-width:0.27268815"
       d="M 48.88177,40.716893 A 17.247526,17.247526 0 0 0 31.634244,57.964419 17.247526,17.247526 0 0 0 48.88177,75.211944 17.247526,17.247526 0 0 0 66.129296,57.964419 17.247526,17.247526 0 0 0 48.88177,40.716893 Z m -0.04961,2.993099 A 14.237891,14.237891 0 0 1 63.070051,57.947882 14.237891,14.237891 0 0 1 48.832161,72.185773 14.237891,14.237891 0 0 1 34.59427,57.947882 14.237891,14.237891 0 0 1 48.83216,43.709992 Z"
       id="path5405"
       inkscape:connector-curvature="0" />
    <path
       style="fill:#000000;fill-opacity:1;stroke:none;stroke-width:0.26458332px;stroke-linecap:butt;stroke-linejoin:miter;stroke-opacity:1"
       d="m 2.7277009,-0.01415662 0.047247,28.36195262 2.4840548,3.46304 -0.023623,7.350259 0.6633885,-0.01502 0.059058,-7.347052 2.500304,-3.458988 0.1063058,-28.3615995 z"
       id="path955"
       inkscape:connector-curvature="0"
       sodipodi:nodetypes="ccccccccc" />
    <path
       style="fill:#000000;fill-opacity:1;stroke:none;stroke-width:0.26458332px;stroke-linecap:butt;stroke-linejoin:miter;stroke-opacity:1"
       d="m 92.058395,-0.00130903 0.04725,28.36190903 2.484055,3.463041 -0.02362,7.350257 0.663388,-0.01503 0.05906,-7.347051 2.500304,-3.458988 0.106306,-28.36154793 z"
       id="path955-1"
       inkscape:connector-curvature="0"
       sodipodi:nodetypes="ccccccccc" />
    <circle
       style="fill:#161618;fill-opacity:1;stroke:none;stroke-width:0.49854845"
       id="path982-9"
       cx="71.257393"
       cy="44.177418"
       r="2.3421333" />
    <circle
       style="fill:#ffffff;fill-opacity:1;stroke:none;stroke-width:0.34920901"
       id="path982"
       cx="71.257393"
       cy="44.177418"
       r="1.6405509" />
    <path
       style="display:inline;fill:none;stroke:#272727;stroke-width:1;stroke-linecap:butt;stroke-linejoin:miter;stroke-miterlimit:4;stroke-dasharray:none;stroke-opacity:1"
       d="M 32.623835,48.550404 H 17.257017 v 20.112454 h 16.044766"
       id="path5429-2"
       inkscape:connector-curvature="0" />
    <path
       style="fill:#1d1d1f;fill-opacity:1;stroke:none;stroke-width:1.00583327"
       d="m 184.9375,143.20312 a 75.4375,75.4375 0 0 0 -75.4375,75.4375 75.4375,75.4375 0 0 0 75.4375,75.4375 75.4375,75.4375 0 0 0 75.4375,-75.4375 75.4375,75.4375 0 0 0 -75.4375,-75.4375 z m -0.1875,10.6875 a 64.812502,64.812502 0 0 1 64.8125,64.8125 64.812502,64.812502 0 0 1 -64.8125,64.8125 64.812502,64.812502 0 0 1 -64.8125,-64.8125 64.812502,64.812502 0 0 1 64.8125,-64.8125 z"
       id="path5372"
       inkscape:connector-curvature="0"
       transform="scale(0.26458333)" />
    <rect
       style="fill:#dedfe1;fill-opacity:1;stroke:#666666;stroke-width:0.5;stroke-linecap:round;stroke-linejoin:round;stroke-miterlimit:4;stroke-dasharray:none;stroke-opacity:1"
       id="rect5446"
       width="5.6885414"
       height="2.8442707"
       x="83.92382"
       y="72.351044"
       ry="1" />
    <rect
       style="fill:#3a3a3c;fill-opacity:1;stroke:none;stroke-width:0.5;stroke-linecap:round;stroke-linejoin:round;stroke-miterlimit:4;stroke-dasharray:none;stroke-opacity:1"
       id="rect5448"
       width="7.6004772"
       height="2.525697"
       x="67.001129"
       y="32.250519" />
    <rect
       style="display:inline;fill:#1d1d1f;fill-opacity:1;stroke:none;stroke-width:0.27754423;stroke-linecap:round;stroke-linejoin:round;stroke-miterlimit:4;stroke-dasharray:none;stroke-opacity:1"
       id="rect5448-3"
       width="2.3418834"
       height="2.525697"
       x="69.630424"
       y="32.250519" />
  </g>
  <g
     inkscape:groupmode="layer"
     id="layer8"
     inkscape:label="lens"
     style="display:inline">
    <circle
       style="fill:none;fill-opacity:1;stroke:#666666;stroke-width:1;stroke-linecap:round;stroke-linejoin:round;stroke-miterlimit:4;stroke-dasharray:none;stroke-opacity:1"
       id="path5488"
       cx="48.881771"
       cy="57.832031"
       r="1.984375" />
    <circle
       style="display:inline;fill:none;fill-opacity:1;stroke:#666666;stroke-width:1;stroke-linecap:round;stroke-linejoin:round;stroke-miterlimit:4;stroke-dasharray:none;stroke-opacity:1"
       id="path5488-9"
       cx="48.881771"
       cy="57.832031"
       r="3.5986025" />
    <path
       style="fill:none;stroke:#666666;stroke-width:1;stroke-linecap:butt;stroke-linejoin:miter;stroke-miterlimit:4;stroke-dasharray:none;stroke-opacity:1"
       d="m 39.489062,67.290885 6.746875,-6.945312"
       id="path5511"
       inkscape:connector-curvature="0"
       sodipodi:nodetypes="cc" />
    <path
       style="display:inline;fill:none;stroke:#666666;stroke-width:1;stroke-linecap:butt;stroke-linejoin:miter;stroke-miterlimit:4;stroke-dasharray:none;stroke-opacity:1"
       d="m 51.395312,55.285416 6.746875,-6.945312"
       id="path5511-3"
       inkscape:connector-curvature="0"
       sodipodi:nodetypes="cc" />
    <path
       style="display:inline;fill:none;stroke:#666666;stroke-width:1;stroke-linecap:butt;stroke-linejoin:miter;stroke-miterlimit:4;stroke-dasharray:none;stroke-opacity:1"
       d="M 58.605208,67.588542 51.858333,60.64323"
       id="path5511-1"
       inkscape:connector-curvature="0"
       sodipodi:nodetypes="cc" />
    <path
       style="display:inline;fill:none;stroke:#666666;stroke-width:1;stroke-linecap:butt;stroke-linejoin:miter;stroke-miterlimit:4;stroke-dasharray:none;stroke-opacity:1"
       d="M 46.335157,55.351563 39.588282,48.40625"
       id="path5511-1-2"
       inkscape:connector-curvature="0"
       sodipodi:nodetypes="cc" />
    <circle
       style="display:inline;fill:#f1f1f3;fill-opacity:1;stroke:#666666;stroke-width:0.94389468;stroke-linecap:round;stroke-linejoin:round;stroke-miterlimit:4;stroke-dasharray:none;stroke-opacity:1"
       id="path5578-2"
       cx="38.218994"
       cy="61.926426"
       r="2.3100839" />
    <circle
       style="fill:#f1f1f3;fill-opacity:1;stroke:#666666;stroke-width:0.94389468;stroke-linecap:round;stroke-linejoin:round;stroke-miterlimit:4;stroke-dasharray:none;stroke-opacity:1"
       id="path5578"
       cx="37.803722"
       cy="55.493423"
       r="2.3100839" />
    <circle
       style="display:inline;fill:#f1f1f3;fill-opacity:1;stroke:#666666;stroke-width:0.94389468;stroke-linecap:round;stroke-linejoin:round;stroke-miterlimit:4;stroke-dasharray:none;stroke-opacity:1"
       id="path5578-1"
       cx="40.928623"
       cy="57.056847"
       r="2.3100839" />
    <circle
       style="display:inline;fill:#f1f1f3;fill-opacity:1;stroke:#666666;stroke-width:0.94389468;stroke-linecap:round;stroke-linejoin:round;stroke-miterlimit:4;stroke-dasharray:none;stroke-opacity:1"
       id="path5578-29"
       cx="51.329166"
       cy="48.40625"
       r="2.3100839" />
    <circle
       style="display:inline;fill:#f1f1f3;fill-opacity:1;stroke:#666666;stroke-width:0.94389468;stroke-linecap:round;stroke-linejoin:round;stroke-miterlimit:4;stroke-dasharray:none;stroke-opacity:1"
       id="path5578-5"
       cx="48.834999"
       cy="46.321682"
       r="2.3100839" />
    <circle
       style="display:inline;fill:#f1f1f3;fill-opacity:1;stroke:#666666;stroke-width:0.94389468;stroke-linecap:round;stroke-linejoin:round;stroke-miterlimit:4;stroke-dasharray:none;stroke-opacity:1"
       id="path5578-0"
       cx="57.845909"
       cy="56.84827"
       r="2.3100839" />
    <circle
       style="display:inline;fill:#f1f1f3;fill-opacity:1;stroke:#666666;stroke-width:0.94389468;stroke-linecap:round;stroke-linejoin:round;stroke-miterlimit:4;stroke-dasharray:none;stroke-opacity:1"
       id="path5578-4"
       cx="48.291161"
       cy="65.508286"
       r="2.3100839" />
    <path
       style="display:inline;fill:#4f5257;fill-opacity:0.21791771;stroke:none;stroke-width:0.26458332px;stroke-linecap:butt;stroke-linejoin:miter;stroke-opacity:1"
       d="m 47.684224,70.112585 c 3.876063,-1.041668 9.70486,-1.626484 10.851142,-12.277696 h 2.993419 C 59.798627,68.996371 53.712203,70.082754 47.684224,70.112585 Z"
       id="path5427"
       inkscape:connector-curvature="0"
       sodipodi:nodetypes="cccc" />
    <circle
       style="display:inline;fill:#f1f1f3;fill-opacity:1;stroke:#666666;stroke-width:0.94389468;stroke-linecap:round;stroke-linejoin:round;stroke-miterlimit:4;stroke-dasharray:none;stroke-opacity:1"
       id="path5578-6"
       cx="44.086601"
       cy="67.70105"
       r="2.3100839" />
    <path
       style="fill:#000000;stroke:#000000;stroke-width:0.26458332px;stroke-linecap:butt;stroke-linejoin:miter;stroke-opacity:1;fill-opacity:1"
       d="m 59.200521,45.049349 2.282031,-2.000911 3.571875,4.084505 -2.331641,1.967839 z"
       id="path5675"
       inkscape:connector-curvature="0" />
  </g>
  <g
     inkscape:groupmode="layer"
     id="layer9"
     inkscape:label="bingo holder"
     style="display:none">
    <path
       style="display:inline;fill:#bbbcc0;fill-opacity:1;stroke:#3a3a3c;stroke-width:0.5;stroke-linecap:round;stroke-linejoin:bevel;stroke-miterlimit:4;stroke-dasharray:none;stroke-opacity:1;paint-order:normal"
       d="m 57.271228,78.467753 -8.356385,-20.73494 -9.132137,20.577599 m 3.069419,0.163705 6.095791,-14.325156 4.951536,14.225248"
       id="path5571"
       inkscape:connector-curvature="0"
       sodipodi:nodetypes="cccccc" />
    <path
       style="display:inline;fill:#000000;fill-opacity:1;stroke:#000000;stroke-width:0.26458332px;stroke-linecap:butt;stroke-linejoin:miter;stroke-opacity:1"
       d="m 65.517447,57.36901 c 0.437093,0.02428 3.921371,0.07892 3.921371,0.07892 l -0.04513,-1.071117 c -0.408669,-1.955031 -1.660418,-4.989128 -0.132292,-6.548437 0.506704,-0.517044 1.659907,-0.5119 2.171807,0 1.773484,1.773484 0.663139,5.305213 0.177862,7.700743 -0.08424,0.415864 0.02058,1.129725 0.02058,1.129725 h -6.279556 z"
       id="path5677"
       inkscape:connector-curvature="0"
       sodipodi:nodetypes="cccassccc" />
  </g>
</svg>
